M48
;GenerationSoftware,Autodesk,EAGLE,9.6.2*%
;CreationDate,2022-05-21T09:55:50Z*%
FMAT,2
ICI,OFF
METRIC,TZ,000.000
T4C1.000
T3C1.016
T2C1.200
T1C3.200
%
G90
M71
T1
X44000Y44000
X44000Y4000
X4000Y4000
T2
X37044Y4572
X32044Y4572
T3
X16510Y15494
X10160Y3175
X13970Y8255
X13970Y5715
X13970Y3175
X13970Y15494
X39370Y15494
X19050Y15494
X21590Y15494
X24130Y15494
X26670Y15494
X11430Y15494
X8890Y15494
X6350Y15494
X34290Y15494
X36830Y15494
X41910Y15494
X31750Y15494
X29210Y15494
X13970Y30734
X16510Y30734
X19050Y30734
X21590Y30734
X24130Y30734
X26670Y30734
X11430Y30734
X8890Y30734
X6350Y30734
X34290Y30734
X36830Y30734
X39370Y30734
X41910Y30734
X31750Y30734
X29210Y30734
X18415Y8255
X18415Y5715
X18415Y3175
X22225Y8255
X22225Y5715
X22225Y3175
X26670Y10795
X26670Y8255
X26670Y5715
X26670Y3175
X24130Y36830
X24130Y39370
X24130Y41910
X24130Y44450
X17780Y36830
X17780Y39370
X17780Y41910
X17780Y44450
X11430Y36830
X11430Y39370
X11430Y41910
X11430Y44450
X5080Y36830
X5080Y41910
X5080Y44450
X31750Y39370
X31750Y41910
X31750Y44450
X35560Y39370
X35560Y41910
X35560Y44450
X5080Y39370
X16510Y11430
X13970Y11430
X30480Y11430
X33020Y11430
X10160Y8255
X10160Y5715
T4
X12065Y34290
X17780Y34290
X23495Y34290
X34925Y34290
X36830Y34290
X5080Y34290
M30