M48
;GenerationSoftware,Autodesk,EAGLE,9.6.2*%
;CreationDate,2022-05-20T19:42:17Z*%
FMAT,2
ICI,OFF
METRIC,TZ,000.000
T5C0.813
T4C1.000
T3C1.016
T2C1.118
T1C1.200
%
G90
M71
T1
X23114Y21376
X23114Y47712
X23114Y42712
X23114Y37044
X23114Y32044
X23114Y26376
T2
X31496Y25908
X31496Y36068
X29718Y44069
X29718Y33909
T3
X88900Y5080
X81280Y13970
X81280Y16510
X58420Y19050
X58420Y24130
X58420Y30480
X58420Y33020
X58420Y35560
X31496Y48260
X34036Y48260
X36576Y48260
X39116Y48260
X41656Y48260
X44196Y48260
X35560Y5080
X71120Y48260
X73660Y48260
X76200Y48260
X78740Y48260
X81280Y48260
X83820Y48260
X86360Y48260
X88900Y48260
X78740Y5080
X81280Y5080
X83820Y5080
X86360Y5080
X91440Y5080
X93980Y5080
X76200Y5080
X73660Y53340
X76200Y53340
X78740Y53340
X81280Y53340
X83820Y53340
X86360Y53340
X88900Y53340
X71120Y53340
X55880Y5080
X58420Y5080
X60960Y5080
X63500Y5080
X66040Y5080
X68580Y5080
X71120Y5080
X53340Y5080
X50800Y53340
X53340Y53340
X55880Y53340
X58420Y53340
X60960Y53340
X63500Y53340
X66040Y53340
X48260Y53340
X28956Y53340
X31496Y53340
X34036Y53340
X36576Y53340
X39116Y53340
X41656Y53340
X44196Y53340
X26416Y53340
X58420Y21590
X38100Y5080
X40640Y5080
X43180Y5080
X45720Y5080
X48260Y5080
X23876Y53340
X21336Y53340
X33020Y5080
X30480Y5080
X85090Y11430
X85090Y13970
X85090Y16510
X88900Y11430
X88900Y13970
X88900Y16510
X92710Y11430
X92710Y13970
X92710Y16510
X60960Y48260
X63500Y48260
X57150Y45720
X57150Y48260
X63470Y36576
X91470Y36576
X63470Y25400
X91470Y25400
X53340Y45720
X53340Y48260
X62230Y11430
X62230Y13970
X62230Y16510
X66040Y11430
X66040Y13970
X66040Y16510
X69850Y11430
X69850Y13970
X69850Y16510
X73660Y11430
X73660Y13970
X73660Y16510
X77470Y11430
X77470Y13970
X77470Y16510
X81280Y11430
T4
X29210Y17780
X47625Y8890
X26670Y8255
X55880Y12065
X62230Y34290
X58420Y12065
X61595Y23495
X33020Y21590
T5
X24130Y5080
X21590Y5080
X24130Y10160
X21590Y10160
X24130Y15240
X21590Y15240
X44385Y13970
X35625Y11430
X44385Y11430
X35625Y8890
X44385Y8890
X47625Y40070
X47625Y48830
X50165Y40070
X34990Y41910
X34990Y44450
X50165Y48830
X43750Y41910
X43750Y44450
X35625Y13970
M30