M48
;GenerationSoftware,Autodesk,EAGLE,9.6.2*%
;CreationDate,2022-05-21T11:25:19Z*%
FMAT,2
ICI,OFF
METRIC,TZ,000.000
T4C0.900
T3C1.200
T2C1.321
T1C3.200
%
G90
M71
T1
X4000Y4000
X44000Y4000
X44000Y44000
X4000Y44000
T2
X8350Y16510
X31210Y16510
T3
X25480Y43180
X30480Y43180
X35480Y43180
X35520Y5080
X30520Y5080
X5080Y25480
X5080Y30480
X5080Y35480
X22780Y5080
X17780Y5080
X12780Y5080
X43180Y22780
X43180Y17780
X43180Y12780
X12740Y43180
X17740Y43180
X43090Y35480
X43090Y30480
T4
X31750Y27670
X31750Y30210
X31750Y32750
X20320Y27670
X20320Y30210
X20320Y32750
M30